<?xml version="1.0" encoding="utf-8"?>
<!-- Generator: Adobe Illustrator 27.2.0, SVG Export Plug-In . SVG Version: 6.00 Build 0)  -->
<svg version="1.1" id="perspective" xmlns="http://www.w3.org/2000/svg" xmlns:xlink="http://www.w3.org/1999/xlink" x="0px"
	 y="0px" viewBox="0 0 595.3 595.3" style="enable-background:new 0 0 595.3 595.3;" xml:space="preserve">
<style type="text/css">
	.st0{clip-path:url(#SVGID_00000152252953267954033730000004432638291456817032_);}
	.st1{clip-path:url(#SVGID_00000090274532416243265010000007066495543375345822_);}
</style>
<g>
	<defs>
		<rect id="SVGID_1_" width="595.3" height="595.3"/>
	</defs>
	<clipPath id="SVGID_00000102540855699217281350000008695003720478802568_">
		<use xlink:href="#SVGID_1_"  style="overflow:visible;"/>
	</clipPath>
	<g style="clip-path:url(#SVGID_00000102540855699217281350000008695003720478802568_);">
		<g>
			<defs>
				<rect id="SVGID_00000101102495586441873610000006871104668666134702_" x="-123.3" width="841.9" height="595.3"/>
			</defs>
			<clipPath id="SVGID_00000154415939544519047900000002922333060396666555_">
				<use xlink:href="#SVGID_00000101102495586441873610000006871104668666134702_"  style="overflow:visible;"/>
			</clipPath>
			<g style="clip-path:url(#SVGID_00000154415939544519047900000002922333060396666555_);">
				<g>
					<g>
						<path d="M967.5,595.5H-372.2l529.5-198.9H438l0,0L967.5,595.5z M-369.5,595H964.7L437.9,397.1H157.4L-369.5,595L-369.5,595z"
							/>
						<rect x="-137.1" y="507.2" width="869.4" height="0.5"/>
						<rect x="-24.5" y="464.9" width="644.2" height="0.5"/>
						<rect x="41.8" y="440" width="511.6" height="0.5"/>
						<rect x="85.5" y="423.6" width="424.3" height="0.5"/>
						<rect x="116.4" y="412" width="362.5" height="0.5"/>
						<rect x="139.5" y="403.3" width="316.3" height="0.5"/>
						<polygon points="-237,595.5 -237.2,595 185.3,396.6 185.5,397.1 						"/>
						
							<rect x="-131.9" y="495.8" transform="matrix(0.8473 -0.5311 0.5311 0.8473 -255.0515 104.9622)" width="373.9" height="0.5"/>
						<rect x="-9" y="495.8" transform="matrix(0.7292 -0.6843 0.6843 0.7292 -302.6461 227.3114)" width="289.8" height="0.5"/>
						<rect x="104.4" y="495.9" transform="matrix(0.4705 -0.8824 0.8824 0.4705 -322.9868 453.9194)" width="224.8" height="0.5"/>
						<rect x="297.4" y="396.9" width="0.5" height="198.4"/>
						<rect x="378.3" y="383.7" transform="matrix(0.8827 -0.4699 0.4699 0.8827 -188.7091 236.0687)" width="0.5" height="224.8"/>
						<rect x="459.1" y="351.1" transform="matrix(0.6845 -0.729 0.729 0.6845 -216.6503 491.3473)" width="0.5" height="289.8"/>
						<rect x="540" y="309.1" transform="matrix(0.5307 -0.8476 0.8476 0.5307 -166.8543 690.7328)" width="0.5" height="373.9"/>
						<polygon points="832.3,595.5 409.8,397.1 410,396.6 832.5,595 						"/>
					</g>
					<g>
						<path d="M2303.1,595.5h-1337l0,0L436.6,396.6h282L2303.1,595L2303.1,595.5L2303.1,595.5z M966.2,595h1332.9L718.6,397.1H439.3
							L966.2,595L966.2,595z"/>
						<rect x="553.5" y="440" width="511.6" height="0.5"/>
						<rect x="509.8" y="423.6" width="424.3" height="0.5"/>
						<rect x="478.9" y="412" width="362.5" height="0.5"/>
						<rect x="455.8" y="403.3" width="316.3" height="0.5"/>
						<rect x="782.6" y="164" transform="matrix(0.2987 -0.9543 0.9543 0.2987 75.6431 1094.9828)" width="0.5" height="664.1"/>
						<polygon points="1233.4,595.5 494,397.1 494.1,396.6 1233.6,595 						"/>
						<polygon points="1367.2,595.5 522.1,397.1 522.2,396.6 1367.3,595 						"/>
						<polygon points="1500.8,595.5 550.2,397.1 550.3,396.6 1500.9,595 						"/>
						
							<rect x="1106.2" y="-41.3" transform="matrix(0.1846 -0.9828 0.9828 0.1846 414.6122 1491.9066)" width="0.5" height="1074.8"/>
					</g>
					<g>
						<path d="M-370.8,595.5h-1337l0-0.5l1584.5-198.4h282L-370.8,595.5L-370.8,595.5z M-1703.8,595h1332.9l526.8-197.9h-279.3
							L-1703.8,595L-1703.8,595z"/>
						<rect x="-469.8" y="440" width="511.6" height="0.5"/>
						<rect x="-338.8" y="423.6" width="424.3" height="0.5"/>
						<rect x="-246" y="412" width="362.5" height="0.5"/>
						<rect x="-176.9" y="403.3" width="316.3" height="0.5"/>
						<rect x="-1048.5" y="495.8" transform="matrix(0.983 -0.1838 0.1838 0.983 -99.8771 -85.4816)" width="1074.8" height="0.5"/>
						<polygon points="-905.6,595.5 -905.7,595 45,396.6 45.1,397.1 						"/>
						<polygon points="-771.9,595.5 -772,595 73.1,396.6 73.2,397.1 						"/>
						<polygon points="-638.2,595.5 -638.3,595 101.1,396.6 101.3,397.1 						"/>
						
							<rect x="-519.7" y="495.8" transform="matrix(0.9544 -0.2985 0.2985 0.9544 -156.6513 -33.4067)" width="664.1" height="0.5"/>
					</g>
				</g>
				<g>
					<g>
						<path d="M438,198.7l-280.8,0L-372.2-0.2H967.5L438,198.7z M157.4,198.2h280.5L964.7,0.2H-369.5L157.4,198.2z"/>
						<rect x="-137.1" y="87.6" width="869.4" height="0.5"/>
						<rect x="-24.5" y="129.9" width="644.2" height="0.5"/>
						<rect x="41.8" y="154.8" width="511.6" height="0.5"/>
						<rect x="85.5" y="171.2" width="424.3" height="0.5"/>
						<rect x="116.4" y="182.8" width="362.5" height="0.5"/>
						<rect x="139.5" y="191.5" width="316.3" height="0.5"/>
						<polygon points="185.3,198.6 -237.2,0.2 -237,-0.2 185.5,198.2 						"/>
						<rect x="54.7" y="-87.7" transform="matrix(0.5307 -0.8476 0.8476 0.5307 -58.2773 93.181)" width="0.5" height="373.9"/>
						<rect x="135.6" y="-45.7" transform="matrix(0.6845 -0.729 0.729 0.6845 -29.4447 130.3405)" width="0.5" height="289.8"/>
						<rect x="216.5" y="-13.2" transform="matrix(0.8827 -0.4699 0.4699 0.8827 -21.194 113.4988)" width="0.5" height="224.8"/>
						<rect x="297.4" width="0.5" height="198.4"/>
						<rect x="266.1" y="99" transform="matrix(0.4705 -0.8824 0.8824 0.4705 112.8536 386.5434)" width="224.8" height="0.5"/>
						<rect x="314.5" y="98.9" transform="matrix(0.7292 -0.6843 0.6843 0.7292 56.523 341.2149)" width="289.8" height="0.5"/>
						<rect x="353.3" y="98.9" transform="matrix(0.8473 -0.5311 0.5311 0.8473 29.819 302.0775)" width="373.9" height="0.5"/>
						<polygon points="410,198.6 409.8,198.2 832.3,-0.2 832.5,0.2 						"/>
					</g>
					<g>
						<path d="M718.6,198.7h-282L966.1-0.2h1337l0,0.5L718.6,198.7z M439.3,198.2h279.2L2299.1,0.2H966.2L439.3,198.2z"/>
						<rect x="553.5" y="154.8" width="511.6" height="0.5"/>
						<rect x="509.8" y="171.2" width="424.3" height="0.5"/>
						<rect x="478.9" y="182.8" width="362.5" height="0.5"/>
						<rect x="455.8" y="191.5" width="316.3" height="0.5"/>
						<rect x="450.9" y="99" transform="matrix(0.9544 -0.2985 0.2985 0.9544 6.0695 238.2605)" width="664.1" height="0.5"/>
						<polygon points="494.1,198.7 494,198.2 1233.4,-0.2 1233.6,0.2 						"/>
						<polygon points="522.2,198.7 522.1,198.2 1367.2,-0.2 1367.3,0.2 						"/>
						<polygon points="550.3,198.7 550.2,198.2 1500.8,-0.2 1500.9,0.2 						"/>
						<rect x="569" y="98.9" transform="matrix(0.983 -0.1838 0.1838 0.983 0.6287 205.0255)" width="1074.8" height="0.5"/>
					</g>
					<g>
						<path d="M158.7,198.7h-282L-1707.8,0.2l0-0.5h1337l0,0L158.7,198.7z M-1703.8,0.2l1580.5,197.9h279.2L-370.9,0.2H-1703.8z"/>
						<rect x="-469.8" y="154.8" width="511.6" height="0.5"/>
						<rect x="-338.8" y="171.2" width="424.3" height="0.5"/>
						<rect x="-246" y="182.8" width="362.5" height="0.5"/>
						<rect x="-176.9" y="191.5" width="316.3" height="0.5"/>
						
							<rect x="-511.4" y="-438.2" transform="matrix(0.1846 -0.9828 0.9828 0.1846 -514.3064 -421.4865)" width="0.5" height="1074.8"/>
						<polygon points="45,198.7 -905.7,0.2 -905.6,-0.2 45.1,198.2 						"/>
						<polygon points="73.1,198.7 -772,0.2 -771.9,-0.2 73.2,198.2 						"/>
						<polygon points="101.1,198.7 -638.3,0.2 -638.2,-0.2 101.3,198.2 						"/>
						
							<rect x="-187.9" y="-232.9" transform="matrix(0.2987 -0.9543 0.9543 0.2987 -226.2595 -109.4833)" width="0.5" height="664.1"/>
					</g>
				</g>
			</g>
		</g>
	</g>
</g>
</svg>
