<?xml version="1.0" encoding="utf-8"?>
<!-- Generator: Adobe Illustrator 27.2.0, SVG Export Plug-In . SVG Version: 6.00 Build 0)  -->
<svg version="1.1" id="perspective" xmlns="http://www.w3.org/2000/svg" xmlns:xlink="http://www.w3.org/1999/xlink" x="0px"
	 y="0px" viewBox="0 0 595.3 595.3" style="enable-background:new 0 0 595.3 595.3;" xml:space="preserve">
<style type="text/css">
	.st0{clip-path:url(#SVGID_00000044170250425660244130000014764329092900169398_);}
	.st1{clip-path:url(#SVGID_00000137114016965541849200000016653354510101342893_);}
</style>
<g>
	<defs>
		<rect id="SVGID_1_" width="595.3" height="595.3"/>
	</defs>
	<clipPath id="SVGID_00000061448794785757383460000011020702181549932190_">
		<use xlink:href="#SVGID_1_"  style="overflow:visible;"/>
	</clipPath>
	<g style="clip-path:url(#SVGID_00000061448794785757383460000011020702181549932190_);">
		<g>
			<defs>
				<rect id="SVGID_00000178167552115280821390000008786925763183080127_" x="-123.3" width="841.9" height="595.3"/>
			</defs>
			<clipPath id="SVGID_00000029759335923542204540000006807141654045755325_">
				<use xlink:href="#SVGID_00000178167552115280821390000008786925763183080127_"  style="overflow:visible;"/>
			</clipPath>
			<g style="clip-path:url(#SVGID_00000029759335923542204540000006807141654045755325_);">
				<g>
					<g>
						<path d="M967.1,595.5H-371.8l0.8-0.5l528.2-297.5H438l0.1,0L967.1,595.5L967.1,595.5z M-369.9,595h1335l-527.3-297H157.4
							L-369.9,595L-369.9,595z"/>
						<rect x="-137.1" y="463.4" width="869.4" height="0.5"/>
						<rect x="-24.5" y="399.9" width="644.2" height="0.5"/>
						<rect x="41.8" y="362.6" width="511.6" height="0.5"/>
						<rect x="85.5" y="338" width="424.3" height="0.5"/>
						<rect x="116.4" y="320.6" width="362.5" height="0.5"/>
						<rect x="139.5" y="307.6" width="316.3" height="0.5"/>
						<polygon points="-237,595.5 -237.3,595.1 185.2,297.6 185.5,298 						"/>
						
							<rect x="-162.3" y="446.3" transform="matrix(0.7292 -0.6843 0.6843 0.7292 -290.6568 158.5586)" width="434.6" height="0.5"/>
						<polygon points="30.5,595.4 30,595.1 241.3,297.7 241.7,298 						"/>
						<rect x="58.9" y="446.3" transform="matrix(0.3343 -0.9425 0.9425 0.3343 -276.5285 501.5227)" width="315.7" height="0.5"/>
						<rect x="297.4" y="297.8" width="0.5" height="297.5"/>
						<rect x="378.3" y="288.7" transform="matrix(0.9423 -0.3346 0.3346 0.9423 -127.605 152.405)" width="0.5" height="315.7"/>
						<polygon points="564.8,595.4 353.6,298 354,297.7 565.2,595.1 						"/>
						<rect x="540" y="229.2" transform="matrix(0.6844 -0.7291 0.7291 0.6844 -155.0834 534.841)" width="0.5" height="434.6"/>
						<polygon points="832.3,595.5 409.8,298 410,297.6 832.6,595.1 						"/>
					</g>
					<g>
						<path d="M2303.1,595.5H966l-0.1,0L437,297.6h281.6L2303.1,595L2303.1,595.5z M966.2,595h1334.2l-1581.8-297H438.9L966.2,595
							L966.2,595z"/>
						<rect x="553.5" y="362.6" width="511.6" height="0.5"/>
						<rect x="509.8" y="338" width="424.3" height="0.5"/>
						<rect x="478.9" y="320.6" width="362.5" height="0.5"/>
						<rect x="455.8" y="307.6" width="316.3" height="0.5"/>
						<polygon points="1099.7,595.5 465.9,298 466.1,297.6 1099.9,595 						"/>
						<polygon points="1233.4,595.5 494,298 494.2,297.6 1233.6,595 						"/>
						<rect x="944.4" y="-1.4" transform="matrix(0.332 -0.9433 0.9433 0.332 209.8298 1189.3433)" width="0.5" height="895.9"/>
						<polygon points="1500.8,595.5 550.1,298 550.3,297.6 1501,595 						"/>
						<polygon points="1634.5,595.5 578.2,298 578.3,297.6 1634.7,595 						"/>
					</g>
					<g>
						<path d="M-370.8,595.5h-1337l-0.1-0.5l1584.5-297.5h281.6l-0.8,0.5L-370.8,595.5L-370.8,595.5z M-1705.1,595h1334.2l527.3-297
							h-279.7L-1705.1,595L-1705.1,595z"/>
						<rect x="-469.8" y="362.6" width="511.6" height="0.5"/>
						<rect x="-338.8" y="338" width="424.3" height="0.5"/>
						<rect x="-246" y="320.6" width="362.5" height="0.5"/>
						<rect x="-176.9" y="307.6" width="316.3" height="0.5"/>
						<polygon points="-1039.2,595.5 -1039.4,595 16.9,297.6 17.1,298 						"/>
						<polygon points="-905.5,595.5 -905.7,595 45,297.6 45.2,298 						"/>
						<rect x="-797.3" y="446.3" transform="matrix(0.9433 -0.332 0.332 0.9433 -168.0675 -90.6714)" width="895.9" height="0.5"/>
						<polygon points="-638.1,595.5 -638.3,595 101.1,297.6 101.3,298 						"/>
						<polygon points="-504.4,595.5 -504.6,595 129.1,297.6 129.4,298 						"/>
					</g>
				</g>
				<g>
					<g>
						<g>
							<path d="M438.2,298H157.1V99h281.1V298L438.2,298z M157.6,297.5h280.1V99.5H157.6V297.5L157.6,297.5z"/>
							<rect x="157.3" y="269.1" width="280.6" height="0.5"/>
							<rect x="157.3" y="240.8" width="280.6" height="0.5"/>
							<rect x="157.3" y="212.4" width="280.6" height="0.5"/>
							<rect x="157.3" y="184.1" width="280.6" height="0.5"/>
							<rect x="157.3" y="155.7" width="280.6" height="0.5"/>
							<rect x="157.3" y="127.4" width="280.6" height="0.5"/>
							<rect x="185.1" y="99.3" width="0.5" height="198.4"/>
							<rect x="213.2" y="99.3" width="0.5" height="198.4"/>
							<rect x="241.3" y="99.3" width="0.5" height="198.4"/>
							<rect x="269.3" y="99.3" width="0.5" height="198.4"/>
							<rect x="297.4" y="99.3" width="0.5" height="198.4"/>
							<rect x="325.5" y="99.3" width="0.5" height="198.4"/>
							<rect x="353.5" y="99.3" width="0.5" height="198.4"/>
							<rect x="381.6" y="99.3" width="0.5" height="198.4"/>
							<rect x="409.6" y="99.3" width="0.5" height="198.4"/>
						</g>
						<g>
							<path d="M718.8,298H437.7V99h281.1V298L718.8,298z M438.2,297.5h280.1V99.5H438.2V297.5L438.2,297.5z"/>
							<rect x="438" y="269.1" width="280.6" height="0.5"/>
							<rect x="438" y="240.8" width="280.6" height="0.5"/>
							<rect x="438" y="212.4" width="280.6" height="0.5"/>
							<rect x="438" y="184.1" width="280.6" height="0.5"/>
							<rect x="438" y="155.7" width="280.6" height="0.5"/>
							<rect x="438" y="127.4" width="280.6" height="0.5"/>
							<rect x="465.8" y="99.3" width="0.5" height="198.4"/>
							<rect x="493.8" y="99.3" width="0.5" height="198.4"/>
							<rect x="521.9" y="99.3" width="0.5" height="198.4"/>
							<rect x="550" y="99.3" width="0.5" height="198.4"/>
							<rect x="578" y="99.3" width="0.5" height="198.4"/>
						</g>
						<g>
							<path d="M157.6,298h-281.1V99h281.1V298L157.6,298z M-123.1,297.5h280.1V99.5h-280.1V297.5L-123.1,297.5z"/>
							<rect x="-123.3" y="269.1" width="280.6" height="0.5"/>
							<rect x="-123.3" y="240.8" width="280.6" height="0.5"/>
							<rect x="-123.3" y="212.4" width="280.6" height="0.5"/>
							<rect x="-123.3" y="184.1" width="280.6" height="0.5"/>
							<rect x="-123.3" y="155.7" width="280.6" height="0.5"/>
							<rect x="-123.3" y="127.4" width="280.6" height="0.5"/>
							<rect x="16.8" y="99.3" width="0.5" height="198.4"/>
							<rect x="44.8" y="99.3" width="0.5" height="198.4"/>
							<rect x="72.9" y="99.3" width="0.5" height="198.4"/>
							<rect x="100.9" y="99.3" width="0.5" height="198.4"/>
							<rect x="129" y="99.3" width="0.5" height="198.4"/>
						</g>
					</g>
					<g>
						<g>
							<path d="M438.2,99.5H157.1V-99.4h281.1V99.5z M157.6,99h280.1V-98.9H157.6V99z"/>
							<rect x="157.3" y="70.7" width="280.6" height="0.5"/>
							<rect x="157.3" y="42.3" width="280.6" height="0.5"/>
							<rect x="157.3" y="14" width="280.6" height="0.5"/>
							<rect x="185.1" y="-99.1" width="0.5" height="198.4"/>
							<rect x="213.2" y="-99.1" width="0.5" height="198.4"/>
							<rect x="241.3" y="-99.1" width="0.5" height="198.4"/>
							<rect x="269.3" y="-99.1" width="0.5" height="198.4"/>
							<rect x="297.4" y="-99.1" width="0.5" height="198.4"/>
							<rect x="325.5" y="-99.1" width="0.5" height="198.4"/>
							<rect x="353.5" y="-99.1" width="0.5" height="198.4"/>
							<rect x="381.6" y="-99.1" width="0.5" height="198.4"/>
							<rect x="409.6" y="-99.1" width="0.5" height="198.4"/>
						</g>
						<g>
							<path d="M718.8,99.5H437.7V-99.4h281.1V99.5z M438.2,99h280.1V-98.9H438.2V99z"/>
							<rect x="438" y="70.7" width="280.6" height="0.5"/>
							<rect x="438" y="42.3" width="280.6" height="0.5"/>
							<rect x="438" y="14" width="280.6" height="0.5"/>
							<rect x="465.8" y="-99.1" width="0.5" height="198.4"/>
							<rect x="493.8" y="-99.1" width="0.5" height="198.4"/>
							<rect x="521.9" y="-99.1" width="0.5" height="198.4"/>
							<rect x="550" y="-99.1" width="0.5" height="198.4"/>
							<rect x="578" y="-99.1" width="0.5" height="198.4"/>
						</g>
						<g>
							<path d="M157.6,99.5h-281.1V-99.4h281.1V99.5z M-123.1,99h280.1V-98.9h-280.1V99z"/>
							<rect x="-123.3" y="70.7" width="280.6" height="0.5"/>
							<rect x="-123.3" y="42.3" width="280.6" height="0.5"/>
							<rect x="-123.3" y="14" width="280.6" height="0.5"/>
							<rect x="16.8" y="-99.1" width="0.5" height="198.4"/>
							<rect x="44.8" y="-99.1" width="0.5" height="198.4"/>
							<rect x="72.9" y="-99.1" width="0.5" height="198.4"/>
							<rect x="100.9" y="-99.1" width="0.5" height="198.4"/>
							<rect x="129" y="-99.1" width="0.5" height="198.4"/>
						</g>
					</g>
				</g>
			</g>
		</g>
	</g>
</g>
</svg>
