<?xml version="1.0" encoding="utf-8"?>
<!-- Generator: Adobe Illustrator 27.2.0, SVG Export Plug-In . SVG Version: 6.00 Build 0)  -->
<svg version="1.1" id="perspective" xmlns="http://www.w3.org/2000/svg" xmlns:xlink="http://www.w3.org/1999/xlink" x="0px"
	 y="0px" viewBox="0 0 595.3 595.3" style="enable-background:new 0 0 595.3 595.3;" xml:space="preserve">
<style type="text/css">
	.st0{clip-path:url(#SVGID_00000152965163134371392250000016919058303358807440_);}
	.st1{clip-path:url(#SVGID_00000076568718750966931680000000253422833284036274_);}
</style>
<g>
	<defs>
		<rect id="SVGID_1_" width="595.3" height="595.3"/>
	</defs>
	<clipPath id="SVGID_00000148621486231852884740000010691572440725542845_">
		<use xlink:href="#SVGID_1_"  style="overflow:visible;"/>
	</clipPath>
	<g style="clip-path:url(#SVGID_00000148621486231852884740000010691572440725542845_);">
		<g>
			<defs>
				<rect id="SVGID_00000041294268185500213430000017839125852715544205_" x="-123.3" width="841.9" height="595.3"/>
			</defs>
			<clipPath id="SVGID_00000149384296007138288760000005662298102522190721_">
				<use xlink:href="#SVGID_00000041294268185500213430000017839125852715544205_"  style="overflow:visible;"/>
			</clipPath>
			<g style="clip-path:url(#SVGID_00000149384296007138288760000005662298102522190721_);">
				<g>
					<g>
						<path d="M718.8,794.7L516,401.8V193.4l0-0.1l202.8-392.9L718.8,794.7L718.8,794.7z M516.5,401.7l201.9,391v-990.1l-201.9,391
							V401.7L516.5,401.7z"/>
						<rect x="585.6" y="58.6" width="0.5" height="478"/>
						<rect x="560.2" y="107.8" width="0.5" height="379.7"/>
						<rect x="543.5" y="140.2" width="0.5" height="314.9"/>
						<rect x="531.7" y="163.1" width="0.5" height="269"/>
						<rect x="522.8" y="180.3" width="0.5" height="234.8"/>
						<rect x="617.1" y="351.1" transform="matrix(0.8402 -0.5423 0.5423 0.8402 -192.9105 420.7394)" width="0.5" height="373.2"/>
						<rect x="617.1" y="322.6" transform="matrix(0.758 -0.6522 0.6522 0.758 -162.1957 518.2889)" width="0.5" height="310.2"/>
						<rect x="617.2" y="289.7" transform="matrix(0.6125 -0.7905 0.7905 0.6125 -90.9476 649.9225)" width="0.5" height="256"/>
						<rect x="617.1" y="249.1" transform="matrix(0.3611 -0.9325 0.9325 0.3611 60.9364 804.1627)" width="0.5" height="217"/>
						<rect x="516.2" y="297.4" width="202.4" height="0.5"/>
						<rect x="508.9" y="237.4" transform="matrix(0.9323 -0.3616 0.3616 0.9323 -44.1406 239.344)" width="217" height="0.5"/>
						<rect x="489.4" y="177.3" transform="matrix(0.7903 -0.6128 0.6128 0.7903 20.6844 415.5591)" width="256" height="0.5"/>
						<rect x="462.3" y="117.3" transform="matrix(0.6524 -0.7579 0.7579 0.6524 125.5274 508.7896)" width="310.3" height="0.5"/>
						<rect x="430.8" y="57.3" transform="matrix(0.5429 -0.8398 0.8398 0.5429 233.8908 544.7794)" width="373.2" height="0.5"/>
					</g>
					<g>
						<path d="M516,194.5V-14.8l202.4-1175.8l0.5,0v992.2l0,0.1L516,194.5L516,194.5z M516.5-14.7v207.2l201.9-391v-989.1
							L516.5-14.7L516.5-14.7z"/>
						<rect x="585.6" y="-419.4" width="0.5" height="478"/>
						<rect x="560.2" y="-271.9" width="0.5" height="379.7"/>
						<rect x="543.5" y="-174.7" width="0.5" height="314.9"/>
						<rect x="531.7" y="-105.8" width="0.5" height="269"/>
						<rect x="522.8" y="-54.5" width="0.5" height="234.8"/>
						<rect x="361.4" y="-62.7" transform="matrix(0.3949 -0.9187 0.9187 0.3949 430.9928 529.4534)" width="512" height="0.5"/>
						<rect x="325" y="-122.7" transform="matrix(0.346 -0.9383 0.9383 0.346 518.7275 499.1469)" width="584.8" height="0.5"/>
						<rect x="287.9" y="-182.8" transform="matrix(0.3069 -0.9518 0.9518 0.3069 601.6625 461.1281)" width="658.9" height="0.5"/>
						<rect x="250.4" y="-242.8" transform="matrix(0.2755 -0.9613 0.9613 0.2755 680.4654 417.7795)" width="733.9" height="0.5"/>
						<rect x="212.6" y="-302.8" transform="matrix(0.2499 -0.9683 0.9683 0.2499 756.0748 370.8676)" width="809.6" height="0.5"/>
						<rect x="174.6" y="-362.8" transform="matrix(0.2285 -0.9735 0.9735 0.2285 829.318 321.3612)" width="885.7" height="0.5"/>
						<rect x="136.4" y="-422.9" transform="matrix(0.2108 -0.9775 0.9775 0.2108 900.4141 270.0635)" width="962.2" height="0.5"/>
						<rect x="98" y="-482.9" transform="matrix(0.1954 -0.9807 0.9807 0.1954 970.1031 217.2298)" width="1038.9" height="0.5"/>
						
							<rect x="59.4" y="-542.8" transform="matrix(0.1814 -0.9834 0.9834 0.1814 1038.9587 162.9134)" width="1115.9" height="0.5"/>
					</g>
					<g>
						<path d="M718.3,1785.9L516,610.1V400.7l202.9,393v992.1L718.3,1785.9L718.3,1785.9z M516.5,402.8V610l201.9,1172.9V793.8
							L516.5,402.8L516.5,402.8z"/>
						<rect x="585.6" y="536.7" width="0.5" height="478"/>
						<rect x="560.2" y="487.5" width="0.5" height="379.7"/>
						<rect x="543.5" y="455.1" width="0.5" height="314.9"/>
						<rect x="531.7" y="432.1" width="0.5" height="269"/>
						<rect x="522.8" y="415" width="0.5" height="234.8"/>
						<rect x="617.2" y="579.9" transform="matrix(0.9834 -0.1814 0.1814 0.9834 -196.1444 130.863)" width="0.5" height="1115.9"/>
						
							<rect x="617.1" y="558.4" transform="matrix(0.9809 -0.1947 0.1947 0.9809 -198.0991 140.8706)" width="0.5" height="1038.9"/>
						<rect x="617.1" y="536.8" transform="matrix(0.9776 -0.2103 0.2103 0.9776 -200.2549 152.6013)" width="0.5" height="962.2"/>
						<rect x="617.2" y="515" transform="matrix(0.9735 -0.2285 0.2285 0.9735 -202.5419 166.4403)" width="0.5" height="885.7"/>
						<rect x="617.2" y="493" transform="matrix(0.9682 -0.25 0.25 0.9682 -204.8651 182.9093)" width="0.5" height="809.6"/>
						<rect x="617.1" y="470.9" transform="matrix(0.9613 -0.2756 0.2756 0.9613 -207.0378 202.6216)" width="0.5" height="733.9"/>
						<rect x="617.1" y="448.4" transform="matrix(0.9517 -0.307 0.307 0.9517 -209.0036 227.1142)" width="0.5" height="658.9"/>
						<rect x="617.1" y="425.4" transform="matrix(0.9383 -0.346 0.346 0.9383 -210.2131 257.9063)" width="0.5" height="584.8"/>
						<rect x="617.2" y="401.7" transform="matrix(0.9186 -0.3952 0.3952 0.9186 -209.694 297.5637)" width="0.5" height="512"/>
					</g>
				</g>
				<g>
					<g>
						<path d="M198,794.8v-994.3l0.5,1l187.4,392l0,208.4L198,794.8L198,794.8z M198.5-197.3v989.9l186.8-390.9V193.6L198.5-197.3
							L198.5-197.3z"/>
						<rect x="280.9" y="-25" width="0.5" height="645.2"/>
						<rect x="77.7" y="-25" width="0.5" height="645.2"/>
						<rect x="320.9" y="58.6" width="0.5" height="478"/>
						<rect x="344.4" y="107.8" width="0.5" height="379.7"/>
						<rect x="359.9" y="140.2" width="0.5" height="314.9"/>
						<rect x="370.8" y="163.1" width="0.5" height="269"/>
						<rect x="379" y="180.3" width="0.5" height="234.8"/>
						<rect x="109.3" y="537.5" transform="matrix(0.5131 -0.8583 0.8583 0.5131 -319.4201 512.3867)" width="365.2" height="0.5"/>
						<rect x="141.6" y="477.4" transform="matrix(0.6235 -0.7818 0.7818 0.6235 -263.5458 408.0964)" width="300.7" height="0.5"/>
						<rect x="33.2" y="467.1" transform="matrix(0.7668 -0.6419 0.6419 0.7668 -245.7058 258.271)" width="398.9" height="0.5"/>
						<rect x="-144.7" y="424.7" transform="matrix(0.9221 -0.3869 0.3869 0.9221 -154.1753 83.8276)" width="551.7" height="0.5"/>
						<rect x="-123.3" y="297.4" width="508.9" height="0.5"/>
						<rect x="130.9" y="-105.5" transform="matrix(0.3861 -0.9225 0.9225 0.3861 -76.6382 225.5701)" width="0.5" height="551.7"/>
						<rect x="231.5" y="-73.3" transform="matrix(0.6417 -0.7669 0.7669 0.6417 -14.5496 223.326)" width="0.5" height="401.2"/>
						<rect x="291.7" y="-32.7" transform="matrix(0.7822 -0.6231 0.6231 0.7822 -9.6799 207.5)" width="0.5" height="300.7"/>
						<rect x="291.7" y="-125.1" transform="matrix(0.8584 -0.5129 0.5129 0.8584 11.8054 157.886)" width="0.5" height="365.2"/>
					</g>
					<g>
						<path d="M385.8,194.6l-0.5-1L198-198.4v-992.2l0.5,0L385.8-14.8V194.6L385.8,194.6z M198.5-198.5l186.8,390.9V-14.7
							L198.5-1187.4V-198.5z"/>
						<rect x="320.9" y="-419.4" width="0.5" height="478"/>
						<rect x="344.4" y="-271.9" width="0.5" height="379.7"/>
						<rect x="359.9" y="-174.7" width="0.5" height="314.9"/>
						<rect x="370.8" y="-105.8" width="0.5" height="269"/>
						<rect x="379" y="-54.5" width="0.5" height="234.8"/>
						<rect x="291.7" y="-315.6" transform="matrix(0.929 -0.3701 0.3701 0.929 43.8488 103.5922)" width="0.5" height="506.3"/>
						<rect x="291.7" y="-412.4" transform="matrix(0.9464 -0.3231 0.3231 0.9464 55.2329 87.7495)" width="0.5" height="579.8"/>
						<rect x="291.7" y="-509.8" transform="matrix(0.9582 -0.2862 0.2862 0.9582 64.4421 75.9155)" width="0.5" height="654.5"/>
						<rect x="291.7" y="-607.5" transform="matrix(0.9665 -0.2566 0.2566 0.9665 72.0141 66.7936)" width="0.5" height="729.9"/>
						<rect x="291.7" y="-705.5" transform="matrix(0.9726 -0.2324 0.2324 0.9726 78.3153 59.5652)" width="0.5" height="806"/>
						<rect x="291.7" y="-803.8" transform="matrix(0.9772 -0.2123 0.2123 0.9772 83.6503 53.7158)" width="0.5" height="882.4"/>
						<rect x="291.7" y="-902.1" transform="matrix(0.9808 -0.1953 0.1953 0.9808 88.1316 48.8719)" width="0.5" height="959.1"/>
						<rect x="291.6" y="-1000.7" transform="matrix(0.9835 -0.1809 0.1809 0.9835 92.0995 44.8332)" width="0.5" height="1036.1"/>
						<rect x="291.6" y="-1099.3" transform="matrix(0.9857 -0.1683 0.1683 0.9857 95.5007 41.3884)" width="0.5" height="1113.3"/>
					</g>
					<g>
						<path d="M198.5,1785.9l-0.5,0V793.6l0,0l187.8-392.9V610L198.5,1785.9L198.5,1785.9z M198.5,793.8v988.9L385.3,610V402.9
							L198.5,793.8L198.5,793.8z"/>
						<rect x="320.9" y="536.7" width="0.5" height="478"/>
						<rect x="344.4" y="487.5" width="0.5" height="379.7"/>
						<rect x="359.9" y="455.1" width="0.5" height="314.9"/>
						<rect x="370.8" y="432.1" width="0.5" height="269"/>
						<rect x="379" y="415" width="0.5" height="234.8"/>
						
							<rect x="-264.7" y="1137.6" transform="matrix(0.1678 -0.9858 0.9858 0.1678 -878.7498 1234.6553)" width="1113.3" height="0.5"/>
						
							<rect x="-226.1" y="1077.6" transform="matrix(0.1807 -0.9835 0.9835 0.1807 -820.9672 1170.2257)" width="1036.1" height="0.5"/>
						
							<rect x="-187.6" y="1017.7" transform="matrix(0.1954 -0.9807 0.9807 0.1954 -763.4258 1105.2864)" width="959.1" height="0.5"/>
						<rect x="-149.3" y="957.6" transform="matrix(0.213 -0.977 0.977 0.213 -706.1594 1039.0427)" width="882.4" height="0.5"/>
						<rect x="-111.1" y="897.6" transform="matrix(0.2324 -0.9726 0.9726 0.2324 -649.1805 973.0835)" width="806" height="0.5"/>
						<rect x="-73.1" y="837.5" transform="matrix(0.2558 -0.9667 0.9667 0.2558 -592.6398 905.681)" width="729.9" height="0.5"/>
						<rect x="-35.3" y="777.5" transform="matrix(0.2859 -0.9583 0.9583 0.2859 -536.8038 835.155)" width="654.5" height="0.5"/>
						<polygon points="198.5,992.2 198,992 385.4,443.3 385.8,443.5 						"/>
						<polygon points="198.5,893 198,892.8 385.4,422.5 385.8,422.7 						"/>
					</g>
				</g>
				<g>
					<g>
						<path d="M516.5,401.7h-131V193.5h131V401.7z M385.9,401.2h130V194h-130V401.2z"/>
						<rect x="497.3" y="193.8" width="0.5" height="207.7"/>
						<rect x="478.7" y="193.8" width="0.5" height="207.7"/>
						<rect x="460" y="193.8" width="0.5" height="207.7"/>
						<rect x="441.4" y="193.8" width="0.5" height="207.7"/>
						<rect x="422.7" y="193.8" width="0.5" height="207.7"/>
						<rect x="404.1" y="193.8" width="0.5" height="207.7"/>
						<rect x="385.7" y="380.5" width="130.5" height="0.5"/>
						<rect x="385.7" y="359.7" width="130.5" height="0.5"/>
						<rect x="385.7" y="338.9" width="130.5" height="0.5"/>
						<rect x="385.7" y="318.2" width="130.5" height="0.5"/>
						<rect x="385.7" y="297.4" width="130.5" height="0.5"/>
						<rect x="385.7" y="276.6" width="130.5" height="0.5"/>
						<rect x="385.7" y="255.9" width="130.5" height="0.5"/>
						<rect x="385.7" y="235.1" width="130.5" height="0.5"/>
						<rect x="385.7" y="214.3" width="130.5" height="0.5"/>
					</g>
					<g>
						<path d="M516.5,194.1h-131V-14.1h131V194.1z M385.9,193.6h130V-13.6h-130V193.6z"/>
						<rect x="497.3" y="-13.9" width="0.5" height="207.7"/>
						<rect x="478.7" y="-13.9" width="0.5" height="207.7"/>
						<rect x="460" y="-13.9" width="0.5" height="207.7"/>
						<rect x="441.4" y="-13.9" width="0.5" height="207.7"/>
						<rect x="422.7" y="-13.9" width="0.5" height="207.7"/>
						<rect x="404.1" y="-13.9" width="0.5" height="207.7"/>
						<rect x="385.7" y="172.8" width="130.5" height="0.5"/>
						<rect x="385.7" y="152" width="130.5" height="0.5"/>
						<rect x="385.7" y="131.2" width="130.5" height="0.5"/>
						<rect x="385.7" y="110.5" width="130.5" height="0.5"/>
						<rect x="385.7" y="89.7" width="130.5" height="0.5"/>
						<rect x="385.7" y="68.9" width="130.5" height="0.5"/>
						<rect x="385.7" y="48.2" width="130.5" height="0.5"/>
						<rect x="385.7" y="27.4" width="130.5" height="0.5"/>
						<rect x="385.7" y="6.6" width="130.5" height="0.5"/>
					</g>
					<g>
						<path d="M516.5,609.4h-131V401.2h131V609.4z M385.9,608.9h130V401.7h-130V608.9z"/>
						<rect x="497.3" y="401.5" width="0.5" height="207.7"/>
						<rect x="478.7" y="401.5" width="0.5" height="207.7"/>
						<rect x="460" y="401.5" width="0.5" height="207.7"/>
						<rect x="441.4" y="401.5" width="0.5" height="207.7"/>
						<rect x="422.7" y="401.5" width="0.5" height="207.7"/>
						<rect x="404.1" y="401.5" width="0.5" height="207.7"/>
						<rect x="385.7" y="588.2" width="130.5" height="0.5"/>
						<rect x="385.7" y="567.4" width="130.5" height="0.5"/>
						<rect x="385.7" y="546.6" width="130.5" height="0.5"/>
						<rect x="385.7" y="525.8" width="130.5" height="0.5"/>
						<rect x="385.7" y="505.1" width="130.5" height="0.5"/>
						<rect x="385.7" y="484.3" width="130.5" height="0.5"/>
						<rect x="385.7" y="463.5" width="130.5" height="0.5"/>
						<rect x="385.7" y="442.8" width="130.5" height="0.5"/>
						<rect x="385.7" y="422" width="130.5" height="0.5"/>
					</g>
				</g>
			</g>
		</g>
	</g>
</g>
</svg>
