<?xml version="1.0" encoding="utf-8"?>
<!-- Generator: Adobe Illustrator 27.2.0, SVG Export Plug-In . SVG Version: 6.00 Build 0)  -->
<svg version="1.1" id="perspective" xmlns="http://www.w3.org/2000/svg" xmlns:xlink="http://www.w3.org/1999/xlink" x="0px"
	 y="0px" viewBox="0 0 595.3 595.3" style="enable-background:new 0 0 595.3 595.3;" xml:space="preserve">
<style type="text/css">
	.st0{clip-path:url(#SVGID_00000173861403846289999170000008262296246273625219_);}
</style>
<g>
	<defs>
		<rect id="SVGID_1_" width="595.3" height="595.3"/>
	</defs>
	<clipPath id="SVGID_00000087372462191365842160000006688551857992779917_">
		<use xlink:href="#SVGID_1_"  style="overflow:visible;"/>
	</clipPath>
	<g style="clip-path:url(#SVGID_00000087372462191365842160000006688551857992779917_);">
		<g>
			<g>
				<g>
					<path d="M718.8,794.8l-0.5-1L531,401.8l0-208.4l187.8-392.9L718.8,794.8L718.8,794.8z M531.5,401.7l186.8,390.9v-989.9
						L531.5,193.6V401.7L531.5,401.7z"/>
					<rect x="572" y="107.8" width="0.5" height="379.7"/>
					<rect x="556.5" y="140.2" width="0.5" height="314.9"/>
					<rect x="545.5" y="163.1" width="0.5" height="269"/>
					<rect x="537.3" y="180.3" width="0.5" height="234.8"/>
					<rect x="624.7" y="355.1" transform="matrix(0.8584 -0.5129 0.5129 0.8584 -187.3277 396.6682)" width="0.5" height="365.2"/>
					<rect x="624.7" y="327.4" transform="matrix(0.7822 -0.6231 0.6231 0.7822 -161.5267 493.4157)" width="0.5" height="300.7"/>
					<polygon points="718.4,496.2 531.1,339.5 531.4,339.1 718.7,495.9 					"/>
					<rect x="624.7" y="256.2" transform="matrix(0.3861 -0.9225 0.9225 0.3861 53.7088 796.0999)" width="0.5" height="203.1"/>
					<rect x="531.2" y="297.4" width="187.3" height="0.5"/>
					<rect x="523.4" y="237.3" transform="matrix(0.9221 -0.3869 0.3869 0.9221 -43.2602 260.2606)" width="203.1" height="0.5"/>
					<polygon points="531.4,256.2 531.1,255.8 718.4,99 718.7,99.4 					"/>
					<rect x="474.6" y="117.3" transform="matrix(0.6235 -0.7818 0.7818 0.6235 143.3738 532.8365)" width="300.7" height="0.5"/>
					<rect x="442.3" y="57.3" transform="matrix(0.5131 -0.8583 0.8583 0.5131 254.8732 564.4326)" width="365.3" height="0.5"/>
				</g>
				<g>
					<path d="M531,194.6V-14.8l187.3-1175.8l0.5,0v992.2l0,0.1L531,194.6L531,194.6z M531.5-14.7v207.1l186.8-390.9v-988.9
						L531.5-14.7L531.5-14.7z"/>
					<rect x="572" y="-271.9" width="0.5" height="379.7"/>
					<rect x="556.5" y="-174.7" width="0.5" height="314.9"/>
					<rect x="545.5" y="-105.8" width="0.5" height="269"/>
					<rect x="537.3" y="-54.5" width="0.5" height="234.8"/>
					<rect x="371.8" y="-62.7" transform="matrix(0.3699 -0.9291 0.9291 0.3699 451.7989 541.2448)" width="506.3" height="0.5"/>
					<rect x="335" y="-122.7" transform="matrix(0.3226 -0.9465 0.9465 0.3226 539.2358 508.4748)" width="579.8" height="0.5"/>
					<rect x="297.7" y="-182.8" transform="matrix(0.2865 -0.9581 0.9581 0.2865 620.7629 468.5407)" width="654.5" height="0.5"/>
					<rect x="259.9" y="-242.8" transform="matrix(0.2563 -0.9666 0.9666 0.2563 699.1616 423.6479)" width="729.9" height="0.5"/>
					<rect x="221.9" y="-302.8" transform="matrix(0.2324 -0.9726 0.9726 0.2324 773.9399 375.5781)" width="806" height="0.5"/>
					<rect x="183.7" y="-362.8" transform="matrix(0.213 -0.977 0.977 0.213 846.058 325.2577)" width="882.4" height="0.5"/>
					<rect x="145.4" y="-422.9" transform="matrix(0.1954 -0.9807 0.9807 0.1954 917.284 272.8862)" width="959.1" height="0.5"/>
					<rect x="106.8" y="-482.9" transform="matrix(0.1805 -0.9836 0.9836 0.1805 986.7747 219.1558)" width="1036.1" height="0.5"/>
					<rect x="68.2" y="-542.8" transform="matrix(0.1681 -0.9858 0.9858 0.1681 1054.6686 164.6171)" width="1113.3" height="0.5"/>
				</g>
				<g>
					<path d="M718.3,1785.9L531,610.1V400.7l0.5,1l187.4,392v992.2L718.3,1785.9L718.3,1785.9z M531.5,402.9V610l186.8,1172.7V793.8
						L531.5,402.9L531.5,402.9z"/>
					<rect x="572" y="487.5" width="0.5" height="379.7"/>
					<rect x="556.5" y="455.1" width="0.5" height="314.9"/>
					<rect x="545.5" y="432.1" width="0.5" height="269"/>
					<rect x="537.3" y="415" width="0.5" height="234.8"/>
					<rect x="624.7" y="581.2" transform="matrix(0.9857 -0.1683 0.1683 0.9857 -182.6057 121.4244)" width="0.5" height="1113.3"/>
					<rect x="624.7" y="559.8" transform="matrix(0.9835 -0.1809 0.1809 0.9835 -184.6344 130.8075)" width="0.5" height="1036.1"/>
					<rect x="624.6" y="538.4" transform="matrix(0.9808 -0.1953 0.1953 0.9808 -186.7332 141.6031)" width="0.5" height="959.1"/>
					<rect x="624.7" y="516.6" transform="matrix(0.9772 -0.2123 0.2123 0.9772 -189.1364 154.5473)" width="0.5" height="882.4"/>
					<rect x="624.6" y="494.9" transform="matrix(0.9726 -0.2324 0.2324 0.9726 -191.569 169.8308)" width="0.5" height="806"/>
					<rect x="624.6" y="472.9" transform="matrix(0.9665 -0.2566 0.2566 0.9665 -194.0831 188.4237)" width="0.5" height="729.9"/>
					<rect x="624.6" y="450.6" transform="matrix(0.9582 -0.2862 0.2862 0.9582 -196.4703 211.3677)" width="0.5" height="654.5"/>
					<rect x="624.6" y="427.9" transform="matrix(0.9464 -0.3231 0.3231 0.9464 -198.3928 240.3955)" width="0.5" height="579.8"/>
					<polygon points="718.3,893 531,422.7 531.5,422.5 718.8,892.8 					"/>
				</g>
			</g>
			<g>
				<g>
					<path d="M198,794.8v-994.3l0.5,1l187.4,392l0,208.4L198,794.8L198,794.8z M198.5-197.3v989.9l186.8-390.9V193.6L198.5-197.3
						L198.5-197.3z"/>
					<rect x="280.9" y="-25" width="0.5" height="645.2"/>
					<rect x="77.7" y="-25" width="0.5" height="645.2"/>
					<rect x="320.9" y="58.6" width="0.5" height="478"/>
					<rect x="344.4" y="107.8" width="0.5" height="379.7"/>
					<rect x="359.9" y="140.2" width="0.5" height="314.9"/>
					<rect x="370.8" y="163.1" width="0.5" height="269"/>
					<rect x="379" y="180.3" width="0.5" height="234.8"/>
					<rect x="109.3" y="537.5" transform="matrix(0.5131 -0.8583 0.8583 0.5131 -319.4201 512.3867)" width="365.2" height="0.5"/>
					<rect x="141.6" y="477.4" transform="matrix(0.6235 -0.7818 0.7818 0.6235 -263.5458 408.0964)" width="300.7" height="0.5"/>
					<polygon points="79.8,595.5 79.5,595.1 385.4,339.1 385.8,339.5 					"/>
					<rect x="-144.7" y="424.7" transform="matrix(0.9221 -0.3869 0.3869 0.9221 -154.1753 83.8276)" width="551.7" height="0.5"/>
					<rect x="-123.3" y="297.4" width="508.9" height="0.5"/>
					<rect x="130.9" y="-105.5" transform="matrix(0.3861 -0.9225 0.9225 0.3861 -76.6382 225.5701)" width="0.5" height="551.7"/>
					<polygon points="385.4,256.2 77.8,-1.3 78.1,-1.7 385.8,255.8 					"/>
					<rect x="291.7" y="-32.7" transform="matrix(0.7822 -0.6231 0.6231 0.7822 -9.6799 207.5)" width="0.5" height="300.7"/>
					<rect x="291.7" y="-125.1" transform="matrix(0.8584 -0.5129 0.5129 0.8584 11.8106 157.8846)" width="0.5" height="365.2"/>
				</g>
				<g>
					<path d="M385.8,194.6l-0.5-1L198-198.4v-992.2l0.5,0L385.8-14.8V194.6L385.8,194.6z M198.5-198.5l186.8,390.9V-14.7
						L198.5-1187.4V-198.5z"/>
					<rect x="320.9" y="-419.4" width="0.5" height="478"/>
					<rect x="344.4" y="-271.9" width="0.5" height="379.7"/>
					<rect x="359.9" y="-174.7" width="0.5" height="314.9"/>
					<rect x="370.8" y="-105.8" width="0.5" height="269"/>
					<rect x="379" y="-54.5" width="0.5" height="234.8"/>
					<rect x="291.7" y="-315.6" transform="matrix(0.929 -0.3701 0.3701 0.929 43.8488 103.5922)" width="0.5" height="506.3"/>
					<rect x="291.7" y="-412.4" transform="matrix(0.9464 -0.3231 0.3231 0.9464 55.2329 87.7495)" width="0.5" height="579.8"/>
					<rect x="291.7" y="-509.8" transform="matrix(0.9582 -0.2862 0.2862 0.9582 64.4421 75.9155)" width="0.5" height="654.5"/>
					<rect x="291.7" y="-607.5" transform="matrix(0.9665 -0.2566 0.2566 0.9665 72.0141 66.7936)" width="0.5" height="729.9"/>
					<rect x="291.7" y="-705.5" transform="matrix(0.9726 -0.2324 0.2324 0.9726 78.3153 59.5652)" width="0.5" height="806"/>
					<rect x="291.7" y="-803.8" transform="matrix(0.9772 -0.2123 0.2123 0.9772 83.6503 53.7158)" width="0.5" height="882.4"/>
					<rect x="291.7" y="-902.1" transform="matrix(0.9808 -0.1953 0.1953 0.9808 88.1316 48.8719)" width="0.5" height="959.1"/>
					<rect x="291.6" y="-1000.7" transform="matrix(0.9835 -0.1809 0.1809 0.9835 92.0995 44.8332)" width="0.5" height="1036.1"/>
					<rect x="291.6" y="-1099.3" transform="matrix(0.9857 -0.1683 0.1683 0.9857 95.5007 41.3884)" width="0.5" height="1113.3"/>
				</g>
				<g>
					<path d="M198.5,1785.9l-0.5,0V793.6l0,0l187.8-392.9V610L198.5,1785.9L198.5,1785.9z M198.5,793.8v988.9L385.3,610V402.9
						L198.5,793.8L198.5,793.8z"/>
					<rect x="320.9" y="536.7" width="0.5" height="478"/>
					<rect x="344.4" y="487.5" width="0.5" height="379.7"/>
					<rect x="359.9" y="455.1" width="0.5" height="314.9"/>
					<rect x="370.8" y="432.1" width="0.5" height="269"/>
					<rect x="379" y="415" width="0.5" height="234.8"/>
					
						<rect x="-264.7" y="1137.6" transform="matrix(0.1681 -0.9858 0.9858 0.1681 -878.7988 1234.2659)" width="1113.3" height="0.5"/>
					
						<rect x="-226.1" y="1077.6" transform="matrix(0.1805 -0.9836 0.9836 0.1805 -820.9537 1170.4286)" width="1036.1" height="0.5"/>
					
						<rect x="-187.6" y="1017.7" transform="matrix(0.1954 -0.9807 0.9807 0.1954 -763.4258 1105.2864)" width="959.1" height="0.5"/>
					<rect x="-149.3" y="957.6" transform="matrix(0.213 -0.977 0.977 0.213 -706.1594 1039.0427)" width="882.4" height="0.5"/>
					<rect x="-111.1" y="897.6" transform="matrix(0.2324 -0.9726 0.9726 0.2324 -649.1805 973.0835)" width="806" height="0.5"/>
					<rect x="-73" y="837.5" transform="matrix(0.2563 -0.9666 0.9666 0.2563 -592.6839 905.2329)" width="729.9" height="0.5"/>
					<rect x="-35.3" y="777.6" transform="matrix(0.2865 -0.9581 0.9581 0.2865 -536.9575 834.6609)" width="654.5" height="0.5"/>
					<rect x="2" y="717.5" transform="matrix(0.3226 -0.9465 0.9465 0.3226 -481.595 762.4901)" width="579.8" height="0.5"/>
					<polygon points="198.5,893 198,892.8 385.4,422.5 385.8,422.7 					"/>
				</g>
			</g>
		</g>
	</g>
</g>
</svg>
