<?xml version="1.0" encoding="UTF-8"?>
<svg id="perspective" xmlns="http://www.w3.org/2000/svg" xmlns:xlink="http://www.w3.org/1999/xlink" viewBox="0 0 595.28 595.28">
  <defs>
    <style>
      .cls-1 {
        clip-path: url(#clippath-2);
      }

      .cls-2 {
        clip-path: url(#clippath-1);
      }

      .cls-3 {
        clip-path: url(#clippath);
      }

      .cls-4 {
        fill: none;
      }
    </style>
    <clipPath id="clippath">
      <rect class="cls-4" x="0" y="0" width="595.28" height="595.28"/>
    </clipPath>
    <clipPath id="clippath-1">
      <rect class="cls-4" x="1162.2" y="0" width="595.28" height="595.28"/>
    </clipPath>
    <clipPath id="clippath-2">
      <rect class="cls-4" x="1038.9" width="841.89" height="595.28"/>
    </clipPath>
  </defs>
  <g class="cls-3">
    <g>
      <g>
        <path d="m-123.56,595.68V-.13l.39.28L157.57,198.27v198.66l-.11.07-281.02,198.68ZM-123.06.83v593.89l280.13-198.05v-198.14L-123.06.83Z"/>
        <rect x="-140.18" y="439.07" width="314.38" height=".5" transform="translate(-196.35 54.91) rotate(-26.82)"/>
        <rect x="-129.61" y="382.38" width="293.23" height=".5" transform="translate(-110.24 21.38) rotate(-16.86)"/>
        <rect x="-124.02" y="325.69" width="282.06" height=".5" transform="translate(-32.72 3.37) rotate(-5.78)"/>
        <rect x="16.76" y="128.23" width=".5" height="282.06" transform="translate(-252.6 259.12) rotate(-84.23)"/>
        <rect x="16.76" y="65.96" width=".5" height="293.23" transform="translate(-191.36 167.21) rotate(-73.14)"/>
        <rect x="16.76" y="-1.31" width=".5" height="314.38" transform="translate(-129.81 100.8) rotate(-63.21)"/>
        <rect x="81.93" y="-28.45" width=".5" height="226.95" transform="translate(-35.71 75.73) rotate(-41.47)"/>
        <rect x="111.96" y="-13.14" width=".5" height="168" transform="translate(-20.5 71.35) rotate(-32.49)"/>
        <rect x="126.55" y="-7.7" width=".5" height="128.76" transform="translate(-11.72 66.89) rotate(-28.3)"/>
        <rect x="34.3" width=".5" height="483.6"/>
        <rect x="63.53" width=".5" height="462.93"/>
        <rect x="86.92" width=".5" height="446.4"/>
        <rect x="106.05" width=".5" height="432.87"/>
        <rect x="121.99" width=".5" height="421.6"/>
        <rect x="135.49" width=".5" height="412.06"/>
        <rect x="147.05" width=".5" height="403.89"/>
        <rect x="141.11" y="-2.9" width=".5" height="90.82" transform="translate(-5.92 52.4) rotate(-20.58)"/>
        <rect x="148.3" y="-1.33" width=".5" height="59.34" transform="translate(-1.74 45.18) rotate(-17.19)"/>
        <rect x="154.57" y="-.22" width=".5" height="28.78" transform="translate(-.1 27.17) rotate(-10.03)"/>
      </g>
      <g>
        <path d="m718.83,595.68l-.39-.28-280.74-198.48v-198.66l.11-.07L718.83-.13v595.82Zm-280.63-199.01l280.13,198.05V.83l-280.13,197.7v198.14Z"/>
        <rect x="578.02" y="282.12" width=".5" height="314.38" transform="translate(-74.55 757.47) rotate(-63.21)"/>
        <rect x="578.02" y="236.01" width=".5" height="293.23" transform="translate(44.4 825.1) rotate(-73.14)"/>
        <rect x="578.02" y="184.91" width=".5" height="282.06" transform="translate(195.87 868.53) rotate(-84.23)"/>
        <rect x="437.24" y="269.01" width="282.06" height=".5" transform="translate(-24.17 59.58) rotate(-5.78)"/>
        <rect x="431.65" y="212.32" width="293.23" height=".5" transform="translate(-36.8 176.85) rotate(-16.86)"/>
        <rect x="421.08" y="155.64" width="314.38" height=".5" transform="translate(-8.14 277.63) rotate(-26.82)"/>
        <rect x="399.62" y="84.78" width="226.95" height=".5" transform="translate(109.57 413.15) rotate(-48.52)"/>
        <rect x="399.07" y="70.61" width="168" height=".5" transform="translate(163.89 440.31) rotate(-57.52)"/>
        <rect x="404.09" y="56.44" width="128.76" height=".5" transform="translate(196.36 442.22) rotate(-61.68)"/>
        <rect x="560.48" width=".5" height="483.6"/>
        <rect x="531.25" width=".5" height="462.93"/>
        <rect x="507.86" width=".5" height="446.4"/>
        <rect x="488.73" width=".5" height="432.87"/>
        <rect x="472.78" width=".5" height="421.6"/>
        <rect x="459.29" width=".5" height="412.06"/>
        <rect x="447.73" width=".5" height="403.89"/>
        <rect x="408.5" y="42.26" width="90.82" height=".5" transform="translate(254.59 452.53) rotate(-69.42)"/>
        <rect x="417.05" y="28.09" width="59.34" height=".5" transform="translate(287.84 446.82) rotate(-72.84)"/>
        <rect x="426.07" y="13.92" width="28.78" height=".5" transform="translate(349.91 445.45) rotate(-79.99)"/>
      </g>
      <g>
        <g>
          <path d="m560.4,483.06H34.87l122.37-86.51h280.79l.06.05,122.3,86.47Zm-523.95-.5h522.38l-120.95-85.51H157.4l-120.95,85.51Z"/>
          <rect x="64.53" y="462.15" width="466.21" height=".5"/>
          <rect x="87.68" y="445.79" width="419.92" height=".5"/>
          <rect x="106.64" y="432.38" width="382" height=".5"/>
          <rect x="122.46" y="421.2" width="350.36" height=".5"/>
          <rect x="135.86" y="411.73" width="323.56" height=".5"/>
          <rect x="147.35" y="403.6" width="300.57" height=".5"/>
          <rect x="71.78" y="439.56" width="129.89" height=".5" transform="translate(-256.85 200.58) rotate(-41.44)"/>
          <rect x="120.54" y="439.56" width="112.81" height=".5" transform="translate(-272.96 290.41) rotate(-49.71)"/>
          <rect x="167.77" y="439.56" width="98.83" height=".5" transform="translate(-272.56 412.3) rotate(-60.51)"/>
          <rect x="212.71" y="439.56" width="89.39" height=".5" transform="translate(-235.78 568.08) rotate(-74.24)"/>
          <rect x="297.39" y="396.8" width=".5" height="86.01"/>
          <rect x="337.62" y="395.11" width=".5" height="89.39" transform="translate(-106.96 108.58) rotate(-15.8)"/>
          <rect x="377.85" y="390.39" width=".5" height="98.83" transform="translate(-167.55 243.21) rotate(-29.5)"/>
          <rect x="418.08" y="383.4" width=".5" height="112.81" transform="translate(-185.2 375.16) rotate(-40.32)"/>
          <rect x="458.3" y="374.86" width=".5" height="129.89" transform="translate(-174.66 492.17) rotate(-48.53)"/>
        </g>
        <g>
          <rect x="-53.23" y="545.64" width="701.73" height=".5"/>
          <rect x="-2.34" y="510" width="599.95" height=".5"/>
          <rect x="-60.73" y="539.17" width="169.7" height=".5" transform="translate(-348.53 148.66) rotate(-41.08)"/>
          <rect x="19.04" y="539.17" width="147.04" height=".5" transform="translate(-376.82 257.95) rotate(-49.31)"/>
          <rect x="96.51" y="539.17" width="128.63" height=".5" transform="translate(-387.03 410.24) rotate(-60.13)"/>
          <rect x="171.21" y="539.21" width="116.12" height=".5" transform="translate(-352.48 611.24) rotate(-74.01)"/>
          <rect x="297.39" y="483.64" width=".5" height="111.56"/>
          <rect x="365.73" y="481.41" width=".5" height="116.03" transform="translate(-134.16 121.36) rotate(-15.95)"/>
          <rect x="434" y="475.2" width=".5" height="128.44" transform="translate(-210.24 286.07) rotate(-29.7)"/>
          <rect x="499.96" y="467.51" width=".5" height="143.83" transform="translate(-228.24 436.74) rotate(-39.14)"/>
          <rect x="570.88" y="454.6" width=".5" height="169.65" transform="translate(-210.83 614.99) rotate(-48.88)"/>
        </g>
      </g>
      <rect x="157.07" width=".5" height="198.4"/>
      <rect x="437.7" width=".5" height="198.4"/>
    </g>
  </g>
  <g class="cls-2">
    <g class="cls-1">
      <g>
        <path d="m791.43,595.53H-545.59l-.05-.5,1584.49-297.46h281.63s-.83.46-.83.46l-528.22,297.49Zm-1334.34-.5H791.3l527.28-296.96h-279.68l-1581.8,296.96Z"/>
        <rect x="155.69" y="463.37" width="869.43" height=".5"/>
        <rect x="493.58" y="399.94" width="644.17" height=".5"/>
        <rect x="-426.71" y="446.29" width="1508.48" height=".5" transform="translate(-81.64 73.38) rotate(-11.38)"/>
        <rect x="-294.13" y="446.29" width="1405.07" height=".5" transform="translate(-85.33 96.66) rotate(-12.23)"/>
        <rect x="-161.72" y="446.29" width="1302.03" height=".5" transform="translate(-89.09 123.61) rotate(-13.21)"/>
        <rect x="-29.55" y="446.29" width="1199.43" height=".5" transform="translate(-92.94 155.38) rotate(-14.36)"/>
        <rect x="102.34" y="446.29" width="1097.41" height=".5" transform="translate(-96.63 193.08) rotate(-15.72)"/>
        <rect x="233.86" y="446.29" width="996.14" height=".5" transform="translate(-99.95 238.93) rotate(-17.37)"/>
        <rect x="364.86" y="446.29" width="895.89" height=".5" transform="translate(-102.15 295.18) rotate(-19.39)"/>
        <rect x="495.18" y="446.29" width="797.02" height=".5" transform="translate(-102.07 365.65) rotate(-21.91)"/>
      </g>
    </g>
  </g>
</svg>