<?xml version="1.0" encoding="utf-8"?>
<!-- Generator: Adobe Illustrator 27.2.0, SVG Export Plug-In . SVG Version: 6.00 Build 0)  -->
<svg version="1.1" id="perspective" xmlns="http://www.w3.org/2000/svg" xmlns:xlink="http://www.w3.org/1999/xlink" x="0px"
	 y="0px" viewBox="0 0 595.3 595.3" style="enable-background:new 0 0 595.3 595.3;" xml:space="preserve">
<style type="text/css">
	.st0{clip-path:url(#SVGID_00000111167873578874573340000008092811523494892222_);}
</style>
<g>
	<defs>
		<rect id="SVGID_1_" width="595.3" height="595.3"/>
	</defs>
	<clipPath id="SVGID_00000016066581335240417180000016629496152917292705_">
		<use xlink:href="#SVGID_1_"  style="overflow:visible;"/>
	</clipPath>
	<g style="clip-path:url(#SVGID_00000016066581335240417180000016629496152917292705_);">
		<g>
			<g>
				<path d="M-123.6,595.7V-0.1l0.4,0.3l280.7,198.1v198.7l-0.1,0.1L-123.6,595.7L-123.6,595.7z M-123.1,0.8v593.9l280.1-198V198.5
					L-123.1,0.8z"/>
				<rect x="-140.1" y="439" transform="matrix(0.8924 -0.4512 0.4512 0.8924 -196.3722 54.9471)" width="314.4" height="0.5"/>
				<rect x="-129.6" y="382.4" transform="matrix(0.9573 -0.2892 0.2892 0.9573 -109.9264 21.2733)" width="293.2" height="0.5"/>
				
					<rect x="-124" y="325.7" transform="matrix(0.995 -9.966708e-02 9.966708e-02 0.995 -32.401 3.3173)" width="282.1" height="0.5"/>
				<rect x="16.8" y="128.2" transform="matrix(0.1005 -0.9949 0.9949 0.1005 -252.6059 259.1153)" width="0.5" height="282.1"/>
				<rect x="16.8" y="66" transform="matrix(0.29 -0.957 0.957 0.29 -191.3701 167.2082)" width="0.5" height="293.2"/>
				<rect x="16.8" y="-1.3" transform="matrix(0.4507 -0.8927 0.8927 0.4507 -129.8028 100.7984)" width="0.5" height="314.4"/>
				<rect x="81.9" y="-28.5" transform="matrix(0.7493 -0.6622 0.6622 0.7493 -35.7003 75.7313)" width="0.5" height="226.9"/>
				<rect x="112" y="-13.2" transform="matrix(0.8435 -0.5372 0.5372 0.8435 -20.4923 71.3623)" width="0.5" height="168"/>
				<rect x="126.5" y="-7.7" transform="matrix(0.8805 -0.4741 0.4741 0.8805 -11.7169 66.8871)" width="0.5" height="128.8"/>
				<rect x="34.3" width="0.5" height="483.6"/>
				<rect x="63.5" width="0.5" height="462.9"/>
				<rect x="86.9" width="0.5" height="446.4"/>
				<rect x="106.1" width="0.5" height="432.9"/>
				<rect x="122" width="0.5" height="421.6"/>
				<rect x="135.5" width="0.5" height="412.1"/>
				<rect x="147.1" width="0.5" height="403.9"/>
				<rect x="141.1" y="-2.9" transform="matrix(0.9362 -0.3515 0.3515 0.9362 -5.9205 52.4034)" width="0.5" height="90.8"/>
				<rect x="148.3" y="-1.3" transform="matrix(0.9553 -0.2955 0.2955 0.9553 -1.7433 45.1691)" width="0.5" height="59.3"/>
				<rect x="154.6" y="-0.2" transform="matrix(0.9847 -0.1742 0.1742 0.9847 -9.986676e-02 27.1807)" width="0.5" height="28.8"/>
			</g>
			<g>
				<path d="M718.8,595.7l-0.4-0.3L437.7,396.9V198.3l0.1-0.1l281-198.3V595.7L718.8,595.7z M438.2,396.7l280.1,198V0.8L438.2,198.5
					V396.7z"/>
				<rect x="578" y="282.1" transform="matrix(0.4507 -0.8927 0.8927 0.4507 -74.508 757.4635)" width="0.5" height="314.4"/>
				<rect x="578" y="236" transform="matrix(0.29 -0.957 0.957 0.29 44.3584 825.1149)" width="0.5" height="293.2"/>
				<rect x="578" y="184.9" transform="matrix(0.1005 -0.9949 0.9949 0.1005 195.8493 868.5532)" width="0.5" height="282.1"/>
				
					<rect x="437.2" y="269" transform="matrix(0.995 -9.966708e-02 9.966708e-02 0.995 -23.9586 58.9749)" width="282.1" height="0.5"/>
				<rect x="431.7" y="212.3" transform="matrix(0.9573 -0.2892 0.2892 0.9573 -36.7543 176.3168)" width="293.2" height="0.5"/>
				<rect x="421.1" y="155.6" transform="matrix(0.8924 -0.4512 0.4512 0.8924 -8.1096 277.6689)" width="314.4" height="0.5"/>
				<rect x="399.6" y="84.8" transform="matrix(0.6618 -0.7496 0.7496 0.6618 109.7611 413.4094)" width="227" height="0.5"/>
				<rect x="399.1" y="70.6" transform="matrix(0.537 -0.8436 0.8436 0.537 163.8908 440.3189)" width="168" height="0.5"/>
				<rect x="404.1" y="56.5" transform="matrix(0.4744 -0.8803 0.8803 0.4744 196.3224 442.2395)" width="128.8" height="0.5"/>
				<rect x="560.5" width="0.5" height="483.6"/>
				<rect x="531.2" width="0.5" height="462.9"/>
				<rect x="507.9" width="0.5" height="446.4"/>
				<rect x="488.7" width="0.5" height="432.9"/>
				<rect x="472.8" width="0.5" height="421.6"/>
				<rect x="459.3" width="0.5" height="412.1"/>
				<rect x="447.7" width="0.5" height="403.9"/>
				<rect x="408.5" y="42.3" transform="matrix(0.3518 -0.9361 0.9361 0.3518 254.4185 452.487)" width="90.8" height="0.5"/>
				<rect x="417" y="28.1" transform="matrix(0.295 -0.9555 0.9555 0.295 287.8331 446.8171)" width="59.3" height="0.5"/>
				<rect x="426" y="13.9" transform="matrix(0.1738 -0.9848 0.9848 0.1738 349.9279 445.4177)" width="28.8" height="0.5"/>
			</g>
			<g>
				<g>
					<path d="M560.4,483.1H34.9l122.4-86.5H438L560.4,483.1z M36.5,482.6h522.4l-121-85.5H157.4L36.5,482.6L36.5,482.6z"/>
					<rect x="64.5" y="462.1" width="466.2" height="0.5"/>
					<rect x="87.7" y="445.8" width="419.9" height="0.5"/>
					<rect x="106.6" y="432.4" width="382" height="0.5"/>
					<rect x="122.5" y="421.2" width="350.4" height="0.5"/>
					<rect x="135.9" y="411.7" width="323.6" height="0.5"/>
					<rect x="147.4" y="403.6" width="300.6" height="0.5"/>
					<rect x="71.8" y="439.5" transform="matrix(0.7496 -0.6618 0.6618 0.7496 -256.8412 200.5939)" width="129.9" height="0.5"/>
					<rect x="120.5" y="439.6" transform="matrix(0.6471 -0.7624 0.7624 0.6471 -272.8687 290.1419)" width="112.8" height="0.5"/>
					<rect x="167.8" y="439.6" transform="matrix(0.492 -0.8706 0.8706 0.492 -272.5846 412.5289)" width="98.8" height="0.5"/>
					<rect x="212.7" y="439.6" transform="matrix(0.2714 -0.9625 0.9625 0.2714 -235.7933 568.2109)" width="89.4" height="0.5"/>
					<rect x="297.4" y="396.8" width="0.5" height="86"/>
					<rect x="337.6" y="395.1" transform="matrix(0.9622 -0.2723 0.2723 0.9622 -106.9751 108.6176)" width="0.5" height="89.4"/>
					<rect x="377.9" y="390.4" transform="matrix(0.8704 -0.4924 0.4924 0.8704 -167.5548 243.2053)" width="0.5" height="98.8"/>
					<rect x="418.1" y="383.4" transform="matrix(0.7624 -0.6471 0.6471 0.7624 -185.1996 375.1621)" width="0.5" height="112.8"/>
					<rect x="458.3" y="374.9" transform="matrix(0.6622 -0.7493 0.7493 0.6622 -174.6786 492.1557)" width="0.5" height="129.9"/>
				</g>
				<g>
					<rect x="-53.2" y="545.6" width="701.7" height="0.5"/>
					<rect x="-2.3" y="510" width="600" height="0.5"/>
					<rect x="-60.7" y="539.2" transform="matrix(0.7533 -0.6576 0.6576 0.7533 -348.8116 148.9133)" width="169.7" height="0.5"/>
					<polygon points="44.8,595.4 44.5,595 140.3,483.5 140.6,483.8 					"/>
					<rect x="96.5" y="539.2" transform="matrix(0.498 -0.8672 0.8672 0.498 -387.0393 410.2386)" width="128.6" height="0.5"/>
					<rect x="171.2" y="539.2" transform="matrix(0.2755 -0.9613 0.9613 0.2755 -352.4645 611.2393)" width="116.1" height="0.5"/>
					<rect x="297.4" y="483.6" width="0.5" height="111.6"/>
					<rect x="365.7" y="481.4" transform="matrix(0.9615 -0.2748 0.2748 0.9615 -134.1504 121.3339)" width="0.5" height="116"/>
					<rect x="434" y="475.3" transform="matrix(0.8686 -0.4955 0.4955 0.8686 -210.2439 286.0098)" width="0.5" height="128.4"/>
					<rect x="500" y="467.5" transform="matrix(0.7756 -0.6312 0.6312 0.7756 -228.2196 436.7814)" width="0.5" height="143.8"/>
					<rect x="570.9" y="454.7" transform="matrix(0.6576 -0.7533 0.7533 0.6576 -210.8778 614.9536)" width="0.5" height="169.6"/>
				</g>
			</g>
			<g>
				<path d="M438.2,397H157.1V198.1h281.1V397z M157.6,396.5h280.1V198.6H157.6V396.5z"/>
				<rect x="157.3" y="368.2" width="280.6" height="0.5"/>
				<rect x="157.3" y="339.9" width="280.6" height="0.5"/>
				<rect x="157.3" y="311.5" width="280.6" height="0.5"/>
				<rect x="157.3" y="283.2" width="280.6" height="0.5"/>
				<rect x="157.3" y="254.8" width="280.6" height="0.5"/>
				<rect x="157.3" y="226.5" width="280.6" height="0.5"/>
				<rect x="185.1" y="198.4" width="0.5" height="198.4"/>
				<rect x="213.2" y="198.4" width="0.5" height="198.4"/>
				<rect x="241.3" y="198.4" width="0.5" height="198.4"/>
				<rect x="269.3" y="198.4" width="0.5" height="198.4"/>
				<rect x="297.4" y="198.4" width="0.5" height="198.4"/>
				<rect x="325.5" y="198.4" width="0.5" height="198.4"/>
				<rect x="353.5" y="198.4" width="0.5" height="198.4"/>
				<rect x="381.6" y="198.4" width="0.5" height="198.4"/>
				<rect x="409.6" y="198.4" width="0.5" height="198.4"/>
			</g>
			<g>
				<path d="M438.2,198.6H157.1V-0.2h281.1V198.6z M157.6,198.1h280.1V0.2H157.6V198.1z"/>
				<rect x="157.3" y="169.8" width="280.6" height="0.5"/>
				<rect x="157.3" y="141.5" width="280.6" height="0.5"/>
				<rect x="157.3" y="113.1" width="280.6" height="0.5"/>
				<rect x="157.3" y="84.8" width="280.6" height="0.5"/>
				<rect x="157.3" y="56.4" width="280.6" height="0.5"/>
				<rect x="157.3" y="28.1" width="280.6" height="0.5"/>
				<rect x="185.1" width="0.5" height="198.4"/>
				<rect x="213.2" width="0.5" height="198.4"/>
				<rect x="241.3" width="0.5" height="198.4"/>
				<rect x="269.3" width="0.5" height="198.4"/>
				<rect x="297.4" width="0.5" height="198.4"/>
				<rect x="325.5" width="0.5" height="198.4"/>
				<rect x="353.5" width="0.5" height="198.4"/>
				<rect x="381.6" width="0.5" height="198.4"/>
				<rect x="409.6" width="0.5" height="198.4"/>
			</g>
		</g>
	</g>
</g>
</svg>
